<?xml version="1.0" standalone="no"?>
<svg xmlns="http://www.w3.org/2000/svg" xmlns:xlink="http://www.w3.org/1999/xlink" width="104pt" height="127pt" viewBox="0.00 0.00 103.69 126.77">
<g id="graph0" class="graph" transform="translate(4,122.7699966430664) scale(1)" data-name="BinTree">

<polygon fill="white" stroke="none" points="-4,4 -4,-122.77 99.69,-122.77 99.69,4 -4,4" style=""/>
<!-- 10 -->
<g id="node1" class="node" pointer-events="visible" data-name="10">

<ellipse fill="#0096c7" stroke="black" cx="46" cy="-98.08" rx="20.89" ry="20.89" style=""/>
<text text-anchor="middle" x="46" y="-93.88" font-family="Times,serif" font-size="14.00" style="">10</text>
</g>
<!-- 7 -->
<g id="node2" class="node" pointer-events="visible" data-name="7">

<ellipse fill="#0096c7" stroke="black" cx="18" cy="-20.69" rx="18" ry="18" style=""/>
<text text-anchor="middle" x="18" y="-16.49" font-family="Times,serif" font-size="14.00" style="">7</text>
</g>
<!-- 10&#45;&gt;7 -->
<g id="edge1" class="edge" data-name="10-&gt;7">

<path fill="none" stroke="black" d="M38.93,-78.06C35.65,-69.22 31.69,-58.54 28.09,-48.87" style=""/>
<polygon fill="black" stroke="black" points="31.4,-47.72 24.64,-39.57 24.84,-50.16 31.4,-47.72" style=""/>
</g>
<!-- 20 -->
<g id="node3" class="node" pointer-events="visible" data-name="20">

<ellipse fill="#0096c7" stroke="black" cx="75" cy="-20.69" rx="20.89" ry="20.89" style=""/>
<text text-anchor="middle" x="75" y="-16.49" font-family="Times,serif" font-size="14.00" style="">20</text>
</g>
<!-- 10&#45;&gt;20 -->
<g id="edge2" class="edge" data-name="10-&gt;20">

<path fill="none" stroke="black" d="M53.32,-78.06C56.44,-69.93 60.16,-60.26 63.63,-51.24" style=""/>
<polygon fill="black" stroke="black" points="66.82,-52.71 67.14,-42.12 60.28,-50.2 66.82,-52.71" style=""/>
</g>
</g>
</svg>